<svg xmlns="http://www.w3.org/2000/svg" version="1.1" xmlns:xlink="http://www.w3.org/1999/xlink" xmlns:svgjs="http://svgjs.com/svgjs" width="1440" height="560" preserveAspectRatio="none" viewBox="0 0 1440 560"><g mask="url(&quot;#SvgjsMask1378&quot;)" fill="none"><rect width="1440" height="560" x="0" y="0" fill="url(#SvgjsRadialGradient1379)"></rect><path d="M 0,150 C 57.6,145.6 172.8,108 288,128 C 403.2,148 460.8,270.2 576,250 C 691.2,229.8 748.8,29 864,27 C 979.2,25 1036.8,233.4 1152,240 C 1267.2,246.6 1382.4,96 1440,60L1440 560L0 560z" fill="rgba(191, 86, 86, 1)"></path><path d="M 0,297 C 96,339.4 288,506.6 480,509 C 672,511.4 768,316.8 960,309 C 1152,301.2 1344,437.8 1440,470L1440 560L0 560z" fill="rgba(171, 55, 34, 1)"></path></g><defs><mask id="SvgjsMask1378"><rect width="1440" height="560" fill="#ffffff"></rect></mask><radialGradient cx="50%" cy="50%" r="772.53" gradientUnits="userSpaceOnUse" id="SvgjsRadialGradient1379"><stop stop-color="rgba(234, 231, 229, 1)" offset="1"></stop><stop stop-color="rgba(255, 255, 255, 1)" offset="1"></stop></radialGradient></defs></svg>