<svg xmlns="http://www.w3.org/2000/svg" version="1.1" xmlns:xlink="http://www.w3.org/1999/xlink" xmlns:svgjs="http://svgjs.com/svgjs" width="1920" height="1080" preserveAspectRatio="none" viewBox="0 0 1920 1080">
    <g mask="url(&quot;#SvgjsMask1154&quot;)" fill="none">
        <rect width="1920" height="1080" x="0" y="0" fill="rgba(245, 245, 245, 1)"></rect>
        <path d="M412.242,897.004C467.947,896.256,517.057,865.009,546.521,817.728C578.012,767.195,593.704,704.176,564.871,652.081C535.298,598.648,473.077,569.748,412.242,575.109C358.679,579.83,326.706,628.729,300.039,675.421C273.683,721.568,247.559,774.01,271.567,821.421C297.341,872.32,355.194,897.77,412.242,897.004" fill="rgba(255, 120, 79, 1)" class="triangle-float1"></path>
        <path d="M1841.154,1051.029C1898.702,1051.991,1953,1022.516,1981.98,972.788C2011.16,922.717,2010.905,860.388,1981.285,810.576C1952.296,761.825,1897.803,733.132,1841.154,735.958C1788.784,738.57,1749.351,777.933,1723.309,823.444C1697.484,868.577,1684.346,922.034,1708.256,968.21C1733.98,1017.89,1785.217,1050.093,1841.154,1051.029" fill="rgba(255, 120, 79, 1)" class="triangle-float2"></path>
        <path d="M1597.636,388.978C1643.616,392.72,1689.179,369.841,1712.537,330.059C1736.166,289.815,1733.283,239.274,1708.898,199.484C1685.568,161.415,1642.267,141.308,1597.636,142.57C1555.18,143.77,1515.927,167.578,1496.763,205.482C1479.17,240.277,1492.344,279.499,1511.127,313.667C1530.867,349.576,1556.794,385.654,1597.636,388.978" fill="rgba(255, 120, 79, 1)" class="triangle-float3"></path>
        <path d="M129.735,309.784C213.43,314.217,308.703,311.427,353.986,240.901C401.719,166.559,381.467,67.863,332.116,-5.415C288.18,-70.654,208.309,-88.538,129.735,-92.079C41.966,-96.034,-61.742,-100.556,-106.914,-25.2C-152.73,51.23,-108.243,146.36,-56.827,219.141C-14.07,279.665,55.736,305.864,129.735,309.784" fill="rgba(255, 120, 79, 1)" class="triangle-float1"></path>
    </g>
    <defs>
        <mask id="SvgjsMask1154">
            <rect width="1920" height="1080" fill="#ffffff"></rect>
        </mask>
        <style>
            @keyframes float1 {
                0%{transform: rotate3d(1, 1, 1, 45deg)}
                25%{transform:turn(0.25turn)}
                50%{transform: translate(-20px, 20px)}
                50%{transform:turn(0.5turn)}
                75%{{transformturn(0.75turn)}
                100%{{transformturn(1turn)}
                100%{transform: rotate3d(1, 1, 1, 45deg))}
            }

            .triangle-float1 {
                animation: float1 1s infinite;
                transition-timing-function: ease-in-out;
                transition-timing-function: .4s ease-in-out;
            }

            @keyframes float2 {
                0%{transform: translate(-10px, 30px)}
                25%{transform:turn(0.25turn)}
                50%{transform: translate(-20px, 20px)}
                50%{transform:turn(0.5turn)}
                75%{{transformturn(0.75turn)}
                100%{{transformturn(1turn)}
                100%{transform: translate(-10px, 30px)}
            }

            .triangle-float2 {
                animation: float2 10s infinite;
                transition-timing-function: ease-in-out;
                transition-timing-function: .4s ease-in-out;
            }

            @keyframes float3 {
                0%{transform: translate(-10px, 30px)}
                25%{transform:turn(0.25turn)}
                50%{transform: translate(-20px, 20px)}
                50%{transform:turn(0.5turn)}
                75%{{transformturn(0.75turn)}
                100%{{transformturn(1turn)}
                100%{transform: translate(-10px, 30px)}
            }

            .triangle-float3 {
                animation: float3 1s infinite;
                transition-timing-function: .4s ease-in-out;
            }
        </style>
    </defs>
</svg>